<svg xmlns="http://www.w3.org/2000/svg" xmlns:xlink="http://www.w3.org/1999/xlink" xmlns:sketch="http://www.bohemiancoding.com/sketch/ns" viewBox="0 0 30 37.5" version="1.1" x="0px" y="0px"><title>emotion-smile-happy-face-emoji-avatar-grin</title><desc>Created with Sketch.</desc><g stroke="none" stroke-width="1" fill="none" fill-rule="evenodd" sketch:type="MSPage"><g sketch:type="MSArtboardGroup" transform="translate(-270.000000, -180.000000)" fill="#000000"><path d="M298,187.495837 L297.995189,202.495837 L284.995189,210 L272,202.504163 L272.004811,187.504163 L285.004811,180 L298,187.495837 Z M297,188.066153 L296.995559,201.926153 L284.995559,208.859999 L273,201.933846 L273.004441,188.073846 L285.004441,181.14 L297,188.066153 Z M276,194.99889 L277.729809,192 L281.191347,192.00111 L282.922436,195 L281.782649,195 L280.627436,193.00074 L278.317436,193 L277.163505,195 L276,194.99889 Z M287.080017,194.99889 L288.809826,192 L292.271364,192.00111 L294.002453,195 L292.862666,195 L291.707453,193.00074 L289.397453,193 L288.243522,195 L287.080017,194.99889 Z M285.004004,205.063175 L292.188001,200.863297 L291.683304,200 L285.004004,203.914 L278.324704,200 L277.820007,200.863297 L285.004004,205.063175 Z" sketch:type="MSShapeGroup"/></g></g><text x="0" y="45" fill="#000000" font-size="5px" font-weight="bold" font-family="'Helvetica Neue', Helvetica, Arial-Unicode, Arial, Sans-serif">Created by Pham Thi Dieu Linh</text><text x="0" y="50" fill="#000000" font-size="5px" font-weight="bold" font-family="'Helvetica Neue', Helvetica, Arial-Unicode, Arial, Sans-serif">from the Noun Project</text></svg>