<svg xmlns="http://www.w3.org/2000/svg" xmlns:xlink="http://www.w3.org/1999/xlink" xmlns:sketch="http://www.bohemiancoding.com/sketch/ns" viewBox="0 0 30 37.5" version="1.1" x="0px" y="0px"><title>emotion-bored-dull-face-emoji-avatar-9</title><desc>Created with Sketch.</desc><g stroke="none" stroke-width="1" fill="none" fill-rule="evenodd" sketch:type="MSPage"><g sketch:type="MSArtboardGroup" transform="translate(-360.000000, -45.000000)" fill="#000000"><path d="M388,52.4958372 L387.995189,67.4958372 L374.995189,75 L362,67.5041628 L362.004811,52.5041628 L375.004811,45 L388,52.4958372 Z M387,53.0661534 L386.995559,66.926153 L374.995559,73.8599993 L363,66.9338459 L363.004441,53.0738463 L375.004441,46.14 L387,53.0661534 Z M368,58 L372,58 L372,59 L368,59 L368,58 Z M378,58 L382,58 L382,59 L378,59 L378,58 Z M372,66 L378,66 L378,67 L372,67 L372,66 Z" sketch:type="MSShapeGroup"/></g></g><text x="0" y="45" fill="#000000" font-size="5px" font-weight="bold" font-family="'Helvetica Neue', Helvetica, Arial-Unicode, Arial, Sans-serif">Created by Pham Thi Dieu Linh</text><text x="0" y="50" fill="#000000" font-size="5px" font-weight="bold" font-family="'Helvetica Neue', Helvetica, Arial-Unicode, Arial, Sans-serif">from the Noun Project</text></svg>