<svg xmlns="http://www.w3.org/2000/svg" xmlns:xlink="http://www.w3.org/1999/xlink" xmlns:sketch="http://www.bohemiancoding.com/sketch/ns" viewBox="0 0 30 37.5" version="1.1" x="0px" y="0px"><title>emotion-sad-unsure-face-emoji-avatar-1</title><desc>Created with Sketch.</desc><g stroke="none" stroke-width="1" fill="none" fill-rule="evenodd" sketch:type="MSPage"><g sketch:type="MSArtboardGroup" transform="translate(-315.000000, -270.000000)" fill="#000000"><path d="M343,277.495837 L342.995189,292.495837 L329.995189,300 L317,292.504163 L317.004811,277.504163 L330.004811,270 L343,277.495837 Z M342,278.066153 L341.995559,291.926153 L329.995559,298.859999 L318,291.933846 L318.004441,278.073846 L330.004441,271.14 L342,278.066153 Z M321,282.00111 L322.729809,285 L326.191347,284.99889 L327.922436,282 L326.782649,282 L325.627436,283.99926 L323.317436,284 L322.163505,282 L321,282.00111 Z M332.080017,282.00111 L333.809826,285 L337.271364,284.99889 L339.002453,282 L337.862666,282 L336.707453,283.99926 L334.397453,284 L333.243522,282 L332.080017,282.00111 Z M330.000202,290.744812 L334.178822,293.184122 L334.684122,292.321178 L330.000202,289.57849 L325.316363,292.316737 L325.82106,293.180033 L330.000202,290.744812 Z" sketch:type="MSShapeGroup"/></g></g><text x="0" y="45" fill="#000000" font-size="5px" font-weight="bold" font-family="'Helvetica Neue', Helvetica, Arial-Unicode, Arial, Sans-serif">Created by Pham Thi Dieu Linh</text><text x="0" y="50" fill="#000000" font-size="5px" font-weight="bold" font-family="'Helvetica Neue', Helvetica, Arial-Unicode, Arial, Sans-serif">from the Noun Project</text></svg>