<svg xmlns="http://www.w3.org/2000/svg" xmlns:xlink="http://www.w3.org/1999/xlink" xmlns:sketch="http://www.bohemiancoding.com/sketch/ns" viewBox="0 0 30 37.5" version="1.1" x="0px" y="0px"><title>emotion-bored-dull-face-emoji-avatar-1</title><desc>Created with Sketch.</desc><g stroke="none" stroke-width="1" fill="none" fill-rule="evenodd" sketch:type="MSPage"><g sketch:type="MSArtboardGroup" transform="translate(-315.000000, -90.000000)" fill="#000000"><path d="M343,97.4958372 L342.995189,112.495837 L329.995189,120 L317,112.504163 L317.004811,97.5041628 L330.004811,90 L343,97.4958372 Z M342,98.0661534 L341.995559,111.926153 L329.995559,118.859999 L318,111.933846 L318.004441,98.0738463 L330.004441,91.14 L342,98.0661534 Z M327,111 L333,111 L333,112 L327,112 L327,111 Z M321,102.00111 L322.729809,105 L326.191347,104.99889 L327.922436,102 L326.782649,102 L325.627436,103.99926 L323.317436,104 L322.163505,102 L321,102.00111 Z M332.080017,102.00111 L333.809826,105 L337.271364,104.99889 L339.002453,102 L337.862666,102 L336.707453,103.99926 L334.397453,104 L333.243522,102 L332.080017,102.00111 Z" sketch:type="MSShapeGroup"/></g></g><text x="0" y="45" fill="#000000" font-size="5px" font-weight="bold" font-family="'Helvetica Neue', Helvetica, Arial-Unicode, Arial, Sans-serif">Created by Pham Thi Dieu Linh</text><text x="0" y="50" fill="#000000" font-size="5px" font-weight="bold" font-family="'Helvetica Neue', Helvetica, Arial-Unicode, Arial, Sans-serif">from the Noun Project</text></svg>