<svg xmlns="http://www.w3.org/2000/svg" xmlns:xlink="http://www.w3.org/1999/xlink" xmlns:sketch="http://www.bohemiancoding.com/sketch/ns" viewBox="0 0 30 37.5" version="1.1" x="0px" y="0px"><title>emotion-bored-dull-face-emoji-avatar-2</title><desc>Created with Sketch.</desc><g stroke="none" stroke-width="1" fill="none" fill-rule="evenodd" sketch:type="MSPage"><g sketch:type="MSArtboardGroup" transform="translate(-270.000000, -90.000000)" fill="#000000"><path d="M298,97.4958372 L297.995189,112.495837 L284.995189,120 L272,112.504163 L272.004811,97.5041628 L285.004811,90 L298,97.4958372 Z M297,98.0661534 L296.995559,111.926153 L284.995559,118.859999 L273,111.933846 L273.004441,98.0738463 L285.004441,91.14 L297,98.0661534 Z M282,111 L288,111 L288,112 L282,112 L282,111 Z M276,104.99889 L277.729809,102 L281.191347,102.00111 L282.922436,105 L281.782649,105 L280.627436,103.00074 L278.317436,103 L277.163505,105 L276,104.99889 Z M287.080017,104.99889 L288.809826,102 L292.271364,102.00111 L294.002453,105 L292.862666,105 L291.707453,103.00074 L289.397453,103 L288.243522,105 L287.080017,104.99889 Z" sketch:type="MSShapeGroup"/></g></g><text x="0" y="45" fill="#000000" font-size="5px" font-weight="bold" font-family="'Helvetica Neue', Helvetica, Arial-Unicode, Arial, Sans-serif">Created by Pham Thi Dieu Linh</text><text x="0" y="50" fill="#000000" font-size="5px" font-weight="bold" font-family="'Helvetica Neue', Helvetica, Arial-Unicode, Arial, Sans-serif">from the Noun Project</text></svg>